<svg width="20" height="16" viewBox="0 0 20 16" fill="none" xmlns="http://www.w3.org/2000/svg">
<path d="M10.0076 0C4.48465 0 0.00756836 4.51535 0.00756836 10.0855C0.00756836 11.9345 0.50236 13.6665 1.36382 15.1562C1.55861 15.4931 1.92979 15.6885 2.3166 15.6885H17.6985C18.0853 15.6885 18.4565 15.4931 18.6513 15.1562C19.5128 13.6665 20.0076 11.9345 20.0076 10.0855C20.0076 4.51535 15.5305 0 10.0076 0ZM10.0076 2.24122C10.5183 2.24122 10.9305 2.59596 11.0603 3.06942C11.0218 3.14856 10.9687 3.21755 10.9406 3.30299L10.6204 4.27197C10.4423 4.39418 10.2395 4.48243 10.0079 4.48243C9.39437 4.48243 8.8968 3.98061 8.8968 3.36182C8.8968 2.74304 9.39403 2.24122 10.0076 2.24122ZM3.3409 12.3267C2.72736 12.3267 2.22979 11.8249 2.22979 11.2061C2.22979 10.5873 2.72736 10.0855 3.3409 10.0855C3.95444 10.0855 4.45201 10.5873 4.45201 11.2061C4.45201 11.8249 3.95444 12.3267 3.3409 12.3267ZM5.00757 6.72365C4.39403 6.72365 3.89646 6.22183 3.89646 5.60304C3.89646 4.98425 4.39403 4.48243 5.00757 4.48243C5.62111 4.48243 6.11868 4.98425 6.11868 5.60304C6.11868 6.22183 5.62111 6.72365 5.00757 6.72365ZM13.576 4.18792L11.4465 10.6314C11.9218 11.0425 12.2298 11.6452 12.2298 12.3267C12.2298 12.7371 12.1124 13.1164 11.9215 13.4473H8.09368C7.90271 13.1164 7.78535 12.7371 7.78535 12.3267C7.78535 11.1381 8.70549 10.1755 9.86521 10.0998L11.9951 3.65598C12.1399 3.21614 12.6107 2.97486 13.0492 3.12475C13.4857 3.27147 13.7211 3.74773 13.576 4.18792ZM14.085 6.19101L14.6239 4.56087C14.7444 4.5157 14.8715 4.48278 15.0076 4.48278C15.6211 4.48278 16.1187 4.9846 16.1187 5.60339C16.1187 6.22218 15.6211 6.724 15.0076 6.724C14.6124 6.72365 14.2822 6.50408 14.085 6.19101ZM16.6742 12.3267C16.0607 12.3267 15.5631 11.8249 15.5631 11.2061C15.5631 10.5873 16.0607 10.0855 16.6742 10.0855C17.2878 10.0855 17.7853 10.5873 17.7853 11.2061C17.7853 11.8249 17.2878 12.3267 16.6742 12.3267Z" fill="white"/>
</svg>
