<svg width="25" height="29" viewBox="0 0 25 29" fill="none" xmlns="http://www.w3.org/2000/svg">
<path d="M12.3133 14.0689C16.1793 14.0689 19.3126 10.9356 19.3126 7.06963C19.3126 3.20365 16.1793 0.0704041 12.3133 0.0704041C8.44737 0.0704041 5.31412 3.20365 5.31412 7.06963C5.31412 10.9356 8.44737 14.0689 12.3133 14.0689ZM17.5518 15.8515L14.9381 26.3175L13.1883 18.8808L14.9381 15.8187H9.68864L11.4384 18.8808L9.68864 26.3175L7.07486 15.8515C3.17607 16.0374 0.0646973 19.2253 0.0646973 23.1679V25.4426C0.0646973 26.8917 1.24035 28.0673 2.68941 28.0673H21.9373C23.3863 28.0673 24.562 26.8917 24.562 25.4426V23.1679C24.562 19.2253 21.4506 16.0374 17.5518 15.8515Z" fill="#FFBF47"/>
</svg>
