<svg width="31" height="25" viewBox="0 0 31 25" fill="none" xmlns="http://www.w3.org/2000/svg">
<g opacity="0.3">
<path d="M29.5515 13.3654L24.1806 11.2674C23.9895 11.1928 23.5932 11.0949 23.1456 11.2674L17.7747 13.3654C17.2758 13.5612 16.9495 14.0181 16.9495 14.5263C16.9495 19.7294 20.1524 23.3286 23.1456 24.4989C23.5932 24.6714 23.9848 24.5735 24.1806 24.4989C26.5724 23.5664 30.3768 20.3308 30.3768 14.5263C30.3768 14.0181 30.0504 13.5612 29.5515 13.3654ZM23.6631 22.2843V13.468L28.1156 15.207C27.8545 19.2678 25.2763 21.5197 23.6631 22.2843ZM10.9818 12.6614C14.278 12.6614 16.9495 9.98992 16.9495 6.6937C16.9495 3.39749 14.278 0.726013 10.9818 0.726013C7.68557 0.726013 5.0141 3.39749 5.0141 6.6937C5.0141 9.98992 7.68557 12.6614 10.9818 12.6614ZM15.4575 14.5263C15.4575 14.4097 15.4948 14.3025 15.5088 14.1906C15.3923 14.1859 15.2804 14.1533 15.1592 14.1533H14.3806C13.3455 14.6289 12.194 14.8993 10.9818 14.8993C9.7696 14.8993 8.62268 14.6289 7.583 14.1533H6.8044C3.34501 14.1533 0.53833 16.96 0.53833 20.4194V22.3589C0.53833 23.5944 1.54072 24.5968 2.77621 24.5968H19.1874C19.5044 24.5968 19.8074 24.5268 20.0825 24.4103C17.5649 22.4102 15.4575 18.9694 15.4575 14.5263Z" fill="white"/>
</g>
</svg>
