<svg width="91" height="91" viewBox="0 0 91 91" fill="none" xmlns="http://www.w3.org/2000/svg">
<g clip-path="url(#clip0_2749_1646)">
<path d="M37.1504 9.26684L38.0368 12.575C37.5939 12.6691 37.1541 12.7746 36.7173 12.8917C18.7518 17.7055 8.07685 36.1646 12.8907 54.13C13.0076 54.5665 13.1361 54.9999 13.276 55.4303L9.96569 56.3173C12.0046 62.9609 15.7762 68.6232 20.6403 72.9831C21.3645 72.0997 22.0948 71.2391 22.8221 70.3671C27.5665 74.6484 33.4623 77.5254 39.8131 78.6061C39.569 79.718 39.3363 80.8268 39.0922 81.9387C44.2363 82.838 49.6483 82.6683 55.0276 81.2269C63.8667 78.8585 71.0968 73.4739 75.9246 66.4801L72.9664 64.7735C78.5069 56.8992 80.6548 46.7083 77.9678 36.6803C77.8139 36.106 77.6516 35.5462 77.4663 34.9926L80.7766 34.1056C79.6378 30.5449 77.9925 27.2554 75.9491 24.3187C74.9954 24.9436 74.0564 25.5769 73.1204 26.2217C68.341 19.3274 61.1456 14.4964 53.064 12.6113C53.5374 11.5734 54.0077 10.5241 54.4811 9.48616C48.9532 8.07413 43.0449 7.90902 37.1504 9.26684ZM75.9824 37.2246C80.4946 54.0643 70.4623 71.4279 53.6118 75.9429C36.7613 80.458 19.3913 70.4369 14.8792 53.5972C10.367 36.7575 20.3992 19.394 37.2497 14.8789C54.1003 10.3638 71.4702 20.3849 75.9824 37.2246Z" fill="#FFBF47"/>
</g>
<defs>
<clipPath id="clip0_2749_1646">
<rect width="74.1469" height="74.1469" fill="white" transform="translate(19.2147 90.8352) rotate(-105)"/>
</clipPath>
</defs>
</svg>
