<?xml version="1.0" encoding="UTF-8"?>
<svg version="1.1" xmlns="http://www.w3.org/2000/svg" width="1610" height="466">
<path d="M0 0 C1.12695786 -0.00571014 2.25391571 -0.01142029 3.4150238 -0.01730347 C5.26341103 -0.01898026 5.26341103 -0.01898026 7.1491394 -0.02069092 C8.45039261 -0.02565582 9.75164581 -0.03062073 11.09233093 -0.03573608 C14.66083302 -0.04884022 18.22931631 -0.05530165 21.79783869 -0.05974674 C24.03051027 -0.06268185 26.26317678 -0.06678758 28.49584579 -0.07125092 C35.49041377 -0.08492321 42.48497007 -0.09459008 49.47955048 -0.09845281 C57.53629655 -0.1029272 65.59287243 -0.12044731 73.64956677 -0.1494534 C79.88754752 -0.17112665 86.1254806 -0.18116016 92.36349857 -0.18249393 C96.08395302 -0.18353831 99.80424743 -0.18936697 103.52466202 -0.20731354 C107.68214346 -0.22697798 111.8392727 -0.22248287 115.99679565 -0.21600342 C117.21690842 -0.2252182 118.43702118 -0.23443298 119.69410706 -0.243927 C131.55616374 -0.18617462 141.61661871 2.32639737 150.21505737 10.88653564 C160.52184415 23.31150918 159.60999085 39.84943533 159.57467651 55.04302979 C159.57439409 56.74876911 159.57455345 58.45450855 159.57511902 60.1602478 C159.57540484 64.76908275 159.56954287 69.37789145 159.56254506 73.98672032 C159.55627573 78.8113512 159.5557049 83.63598274 159.55451965 88.46061707 C159.55141687 97.58701789 159.54321771 106.71340667 159.53317016 115.83980221 C159.52197628 126.2340074 159.51649033 136.62821318 159.51147473 147.02242291 C159.50103419 168.39510411 159.48270184 189.76776881 159.46115112 211.14044189 C144.28115112 211.14044189 129.10115112 211.14044189 113.46115112 211.14044189 C113.44133179 205.849646 113.42151245 200.5588501 113.40109253 195.10772705 C113.33432569 177.6692964 113.25678574 160.23092612 113.17362404 142.7925663 C113.12344527 132.21485473 113.07700307 121.63715112 113.03927612 111.05938721 C113.00639416 101.84267754 112.96658419 92.62602868 112.91836107 83.40938604 C112.89305819 78.52665606 112.87128822 73.64396662 112.85780716 68.76118851 C112.84502103 64.16969065 112.82300434 59.57833155 112.79376793 54.98690987 C112.78466505 53.2978051 112.77899565 51.60867798 112.77693748 49.91954994 C112.77363396 47.62108305 112.75820927 45.32301417 112.73962402 43.02462769 C112.73409327 41.73596109 112.72856251 40.4472945 112.72286415 39.11957741 C112.7723444 36.02329257 112.7723444 36.02329257 110.46115112 34.14044189 C102.54115112 34.14044189 94.62115112 34.14044189 86.46115112 34.14044189 C86.13115112 92.55044189 85.80115112 150.96044189 85.46115112 211.14044189 C70.28115112 211.14044189 55.10115112 211.14044189 39.46115112 211.14044189 C39.13115112 152.73044189 38.80115112 94.32044189 38.46115112 34.14044189 C30.54115112 34.14044189 22.62115112 34.14044189 14.46115112 34.14044189 C11.99549612 37.83892439 12.20175923 39.68966498 12.18267822 44.10691833 C12.17688582 44.82001972 12.17109342 45.53312111 12.16512549 46.26783162 C12.14808703 48.66315801 12.14524572 51.05829217 12.14230347 53.45367432 C12.13300793 55.16838557 12.12283983 56.88309227 12.11186218 58.59779358 C12.08450582 63.25861466 12.06939611 67.91940543 12.05643415 72.58028579 C12.04082823 77.44903154 12.01402996 82.31771516 11.98840332 87.18641663 C11.94157049 96.40861128 11.90484821 105.63081757 11.87173045 114.85307056 C11.83354085 125.35116495 11.78412243 135.84919701 11.73374629 146.3472389 C11.63035943 167.94493299 11.54260348 189.54265318 11.46115112 211.14044189 C-3.71884888 211.14044189 -18.89884888 211.14044189 -34.53884888 211.14044189 C-34.58409065 189.10387028 -34.62089318 167.0673366 -34.64247322 145.03073025 C-34.65276195 134.79750843 -34.66677607 124.56431763 -34.68972778 114.33111572 C-34.70973552 105.40621181 -34.72258276 96.48133037 -34.72702587 87.55640465 C-34.7296208 82.83587329 -34.73566931 78.11540621 -34.75030899 73.39489555 C-34.7640099 68.94047471 -34.76804658 64.48614387 -34.76506424 60.03170395 C-34.76560886 58.40770413 -34.7695111 56.7837009 -34.77725983 55.15971947 C-34.93237405 20.9360122 -34.93237405 20.9360122 -23.73806763 8.96466064 C-16.8985865 3.29141431 -8.82914671 0.02683091 0 0 Z " fill="#FFBF47" transform="translate(1062.5388488769531,47.85955810546875)"/>
<path d="M0 0 C17.36075444 -0.53813659 33.57596268 4.19363813 46.9609375 15.47265625 C59.09394445 27.3609639 64.31084805 43.08208007 64.65913391 59.80412292 C64.67390894 62.29670331 64.67794867 64.78936297 64.6730957 67.28198242 C64.67745376 68.6664965 64.68264051 70.05100818 64.68858337 71.43551636 C64.70187077 75.1651868 64.70256333 78.89475526 64.70002007 82.62444472 C64.69894281 85.75501023 64.70385316 88.88555574 64.7086255 92.01611692 C64.7196864 99.41318525 64.72017817 106.8102028 64.71411133 114.20727539 C64.70808152 121.79680452 64.72036513 129.3861478 64.7416814 136.97564524 C64.75939488 143.52724251 64.7652833 150.07878115 64.76204365 156.63040143 C64.76024524 160.52754453 64.76272011 164.4245552 64.77675819 168.32167625 C64.86062552 193.80541005 64.76897147 217.21086074 46.1484375 236.84765625 C34.22029564 248.29707669 18.53689777 253.40077201 2.13183594 253.12158203 C-13.8625136 252.33169576 -27.29205936 247.6036591 -39.2890625 236.72265625 C-40.0521875 235.87703125 -40.8153125 235.03140625 -41.6015625 234.16015625 C-42.41367188 233.35384766 -42.41367188 233.35384766 -43.2421875 232.53125 C-55.42978421 219.84025256 -58.06883595 202.92931573 -57.98974609 186.03515625 C-57.99382147 184.55533463 -57.99916872 183.07551605 -58.00567627 181.59570312 C-58.01924101 177.61218667 -58.01409657 173.62890581 -58.00453901 169.64538574 C-57.99688569 165.4549908 -58.00400364 161.26461457 -58.00869751 157.07421875 C-58.01413867 150.04032816 -58.00700669 143.00653241 -57.99267578 135.97265625 C-57.97635242 127.86781208 -57.98164209 119.7631944 -57.998155 111.65835571 C-58.0118168 104.67027869 -58.01366669 97.68226942 -58.00583899 90.69418335 C-58.00118816 86.53338922 -58.00046559 82.37270116 -58.01044846 78.21191406 C-58.01918459 74.29815188 -58.0129765 70.3846786 -57.99576569 66.47094727 C-57.99183601 65.04403155 -57.99287364 63.61709104 -57.99955368 62.19018555 C-58.07467065 44.49872203 -53.80654963 30.24304596 -41.6015625 17.16015625 C-30.12886873 6.27824904 -15.63623765 0.96259121 0 0 Z " fill="#FFBF47" transform="translate(189.6015625,103.83984375)"/>
<path d="M0 0 C1.39092912 0.00171814 2.78186146 0.00163831 4.17279053 -0.00012207 C7.06050416 0.00151463 9.94742587 0.01990994 12.83496094 0.05175781 C16.50850368 0.09158107 20.18102218 0.09577524 23.85474014 0.08829498 C26.71695088 0.08520587 29.57893764 0.09741171 32.44109344 0.11442566 C34.44493859 0.12471721 36.44882621 0.12530093 38.45269775 0.12561035 C49.66139417 0.26997931 59.34665613 2.05025271 67.984375 9.59375 C78.16772241 20.82038022 78.56713905 35.31111407 78.43847656 49.59301758 C78.43734588 51.3683113 78.43798625 53.14360689 78.44024658 54.91889954 C78.44138604 59.6991364 78.41800226 64.47896513 78.38995075 69.25910783 C78.36480795 74.26920854 78.362585 79.27932041 78.35784912 84.28947449 C78.34545699 93.75936064 78.31268667 103.2290603 78.27245116 112.69886464 C78.22761586 123.48732623 78.20571693 134.2757971 78.18566942 145.06432879 C78.14395038 167.24092948 78.07064542 189.41727478 77.984375 211.59375 C63.134375 211.59375 48.284375 211.59375 32.984375 211.59375 C32.984375 188.49375 32.984375 165.39375 32.984375 141.59375 C22.754375 141.59375 12.524375 141.59375 1.984375 141.59375 C1.984375 164.69375 1.984375 187.79375 1.984375 211.59375 C-13.195625 211.59375 -28.375625 211.59375 -44.015625 211.59375 C-44.08344755 188.74033289 -44.13866819 165.88699777 -44.17106152 143.03350544 C-44.18650468 132.42130737 -44.20754528 121.80917645 -44.24194336 111.19702148 C-44.27192397 101.94325834 -44.29121853 92.68954386 -44.29789048 83.4357335 C-44.3017881 78.53973405 -44.31089451 73.64387376 -44.33281517 68.74791908 C-44.35331739 64.13096315 -44.35943129 59.51420249 -44.35494804 54.89720535 C-44.35576714 53.21108244 -44.36165042 51.52495237 -44.37324142 49.83886909 C-44.46806754 35.32160623 -43.59597565 20.82624713 -33.640625 9.40625 C-24.28814597 0.79694172 -12.11604908 -0.15324141 0 0 Z M1.984375 34.59375 C1.5464688 37.80704823 1.5464688 37.80704823 1.64379883 41.54370117 C1.64336075 42.24639633 1.64292267 42.94909149 1.64247131 43.67308044 C1.64456053 45.99457636 1.66789681 48.31534909 1.69140625 50.63671875 C1.69700176 52.24668483 1.70127207 53.85665602 1.70426941 55.46662903 C1.71572182 59.70329907 1.74519221 63.9396604 1.77838135 68.1762085 C1.80907381 72.4995913 1.82277297 76.82302401 1.83789062 81.14648438 C1.87006176 89.62906369 1.92283274 98.11133287 1.984375 106.59375 C12.214375 106.59375 22.444375 106.59375 32.984375 106.59375 C33.10074786 94.27445066 33.10074786 94.27445066 33.1796875 81.95507812 C33.20358537 76.92927122 33.23183524 71.90375622 33.28613281 66.87817383 C33.32964185 62.82570894 33.35352275 58.77355715 33.36388397 54.72087669 C33.37126634 53.17590596 33.38568263 51.63095208 33.40729523 50.08611488 C33.43639808 47.91942139 33.44032837 45.75401617 33.43847656 43.5871582 C33.44735901 42.35471878 33.45624146 41.12227936 33.46539307 39.85249329 C32.89296851 35.97450028 31.75447383 34.32056511 28.984375 31.59375 C26.34701216 30.86334603 26.34701216 30.86334603 23.44921875 31 C22.39283203 31.00257812 21.33644531 31.00515625 20.24804688 31.0078125 C18.6015918 31.05035156 18.6015918 31.05035156 16.921875 31.09375 C15.82037109 31.09117188 14.71886719 31.08859375 13.58398438 31.0859375 C6.88821751 30.77238355 6.88821751 30.77238355 1.984375 34.59375 Z " fill="#FFBF47" transform="translate(1295.015625,47.40625)"/>
<path d="M0 0 C1.24874908 -0.00960754 2.49749817 -0.01921509 3.78408813 -0.02911377 C5.14560767 -0.033964 6.50712934 -0.03824227 7.86865234 -0.04199219 C8.90355364 -0.04623325 8.90355364 -0.04623325 9.95936203 -0.05056 C13.61483898 -0.06553509 17.27027667 -0.07477346 20.92578125 -0.07910156 C24.67795899 -0.08456501 28.42976996 -0.10855228 32.18183327 -0.13707352 C35.08687334 -0.15582719 37.9918276 -0.16091234 40.89692307 -0.16243744 C42.27863939 -0.16543896 43.66035512 -0.17338153 45.04201126 -0.18662262 C58.11047399 -0.30286297 68.94902417 1.47363222 78.58349609 10.87207031 C88.75992399 22.96136059 87.98073508 40.31296525 87.97485352 55.203125 C87.97821213 56.44714081 87.98157074 57.69115662 87.98503113 58.97286987 C87.99284093 62.34917787 87.99620499 65.72542432 87.99684691 69.10173702 C87.99756307 71.22126204 87.99970796 73.34078081 88.00234413 75.46030426 C88.01156459 82.883371 88.01568316 90.30641991 88.01489258 97.72949219 C88.01429262 104.60270758 88.02483687 111.47584429 88.04063624 118.34903979 C88.05379467 124.28918912 88.05907302 130.22931299 88.05843717 136.16947675 C88.05818462 139.69993448 88.0608993 143.23032212 88.07161522 146.76076508 C88.18268572 186.14597955 88.18268572 186.14597955 81.82958984 198.16113281 C81.49314453 198.804375 81.15669922 199.44761719 80.81005859 200.11035156 C76.49416122 207.14084163 69.11331825 210.77341007 61.33178711 212.80810547 C54.63879082 214.39371541 48.21076788 214.59507615 41.35693359 214.55957031 C39.49047935 214.56387558 39.49047935 214.56387558 37.58631897 214.56826782 C34.97363831 214.57029623 32.36094204 214.56485276 29.74829102 214.55224609 C25.77439098 214.53616236 21.8015058 214.55214498 17.82763672 214.57128906 C15.27490012 214.56930668 12.72216416 214.56546311 10.16943359 214.55957031 C8.99517319 214.56564301 7.82091278 214.5717157 6.61106873 214.57797241 C-4.78435201 214.48189832 -15.91259423 212.41244473 -24.72509766 204.66113281 C-35.82523793 193.14098723 -35.3212015 176.59051519 -35.31567383 161.671875 C-35.31903244 160.35666367 -35.32239105 159.04145233 -35.32585144 157.68638611 C-35.33462004 154.10556922 -35.33702653 150.52477629 -35.33766723 146.9439497 C-35.33838183 144.69881891 -35.34052387 142.45369406 -35.34316444 140.20856476 C-35.35239445 132.35339476 -35.3565023 124.49824165 -35.35571289 116.64306641 C-35.35511283 109.35745979 -35.36565671 102.07192738 -35.38145655 94.78633952 C-35.39459513 88.50061727 -35.39989415 82.21491909 -35.39925748 75.92918324 C-35.39900433 72.18860967 -35.40175305 68.44810214 -35.41243553 64.70754242 C-35.42222359 61.18455543 -35.42212365 57.66169619 -35.4149189 54.1387043 C-35.41339985 52.25450637 -35.42164441 50.37030815 -35.43035889 48.48612976 C-35.38065475 34.76951921 -34.64447845 20.86252179 -25.31494141 10.00097656 C-18.17028307 3.28414208 -9.7092074 0.06038253 0 0 Z M10.82958984 35.16113281 C10.23316748 37.95458639 10.23316748 37.95458639 10.3283844 41.08876038 C10.31855026 42.30156174 10.30871613 43.5143631 10.29858398 44.76391602 C10.30795559 46.10473914 10.31773489 47.44555946 10.32788086 48.78637695 C10.32409718 50.20080605 10.31859672 51.61523144 10.31150818 53.02964783 C10.29754371 56.86849045 10.30872939 60.7068854 10.32521939 64.54570317 C10.33906504 68.56151387 10.33261048 72.57729845 10.3290863 76.59312439 C10.3263841 83.33600078 10.33986163 90.07869916 10.36303711 96.8215332 C10.38965778 104.62079735 10.39139062 112.41976407 10.37964875 120.2190581 C10.36887627 127.71875956 10.37505313 135.21835328 10.38920403 142.71804619 C10.39496738 145.91138692 10.39487845 149.10464889 10.39013863 152.2979908 C10.38537239 156.05651521 10.39545542 159.81471315 10.41709328 163.57317543 C10.42266581 164.95386911 10.42312215 166.33459413 10.41814041 167.71529007 C10.41220142 169.59703032 10.42650673 171.47880231 10.44190979 173.36048889 C10.44433969 174.41443376 10.44676958 175.46837862 10.44927311 176.55426121 C10.62175851 179.17839241 10.62175851 179.17839241 12.16631985 180.96117306 C16.36343584 183.98916628 21.2682167 183.38148493 26.20458984 183.41113281 C27.05537109 183.43175781 27.90615234 183.45238281 28.78271484 183.47363281 C33.61305544 183.50372839 36.93317532 183.35898696 40.82958984 180.16113281 C42.15723365 177.50584519 41.96462484 175.49342257 41.97676086 172.51870728 C41.98391617 171.31851456 41.99107147 170.11832184 41.9984436 168.88175964 C42.00128396 167.54470851 42.00399568 166.2076571 42.0065918 164.87060547 C42.01285556 163.46794974 42.01950228 162.06529567 42.02650452 160.66264343 C42.04392047 156.84650507 42.05446755 153.03037924 42.06271005 149.21421099 C42.06785818 146.83117358 42.07393395 144.44814009 42.08022118 142.06510544 C42.09927359 134.61242894 42.11350549 127.15976236 42.12183315 119.70706618 C42.13161151 111.0977932 42.15794624 102.48877693 42.19833404 93.87959445 C42.22846552 87.22901361 42.24329912 80.5785065 42.24661416 73.92785871 C42.24896775 69.95376987 42.25796805 65.97995525 42.28307533 62.00593948 C42.30630998 58.2679533 42.31060823 54.5304228 42.30031395 50.79238319 C42.29958043 48.76540359 42.31870335 46.73844736 42.33837891 44.71156311 C42.33143509 43.50573074 42.32449127 42.29989838 42.31733704 41.05752563 C42.31972539 40.00927927 42.32211374 38.96103291 42.32457447 37.8810215 C41.70178153 34.45883949 40.53588651 33.27921327 37.82958984 31.16113281 C35.29983573 30.55180974 35.29983573 30.55180974 32.54833984 30.62988281 C31.54158203 30.62472656 30.53482422 30.61957031 29.49755859 30.61425781 C28.45212891 30.62972656 27.40669922 30.64519531 26.32958984 30.66113281 C24.76144531 30.63792969 24.76144531 30.63792969 23.16162109 30.61425781 C22.15486328 30.61941406 21.14810547 30.62457031 20.11083984 30.62988281 C18.73508789 30.63665039 18.73508789 30.63665039 17.33154297 30.64355469 C14.00041042 31.33266486 12.94491142 32.52325758 10.82958984 35.16113281 Z " fill="#FFBF47" transform="translate(570.17041015625,47.8388671875)"/>
<path d="M0 0 C1.2079422 -0.00428513 2.4158844 -0.00857025 3.66043091 -0.01298523 C6.20704524 -0.01870969 8.75367592 -0.01924274 11.30029297 -0.01489258 C15.17574234 -0.0117347 19.05042619 -0.03520972 22.92578125 -0.06054688 C25.40885321 -0.0628204 27.89192721 -0.06352312 30.375 -0.0625 C32.09733353 -0.07631462 32.09733353 -0.07631462 33.85446167 -0.09040833 C45.58437928 -0.02365866 55.58344939 2.59392644 64.07421875 11.046875 C75.12243043 24.36564648 73.3203125 42.14892478 73.3203125 58.30078125 C58.8003125 58.30078125 44.2803125 58.30078125 29.3203125 58.30078125 C28.8253125 47.90578125 28.8253125 47.90578125 28.3203125 37.30078125 C19.7403125 37.30078125 11.1603125 37.30078125 2.3203125 37.30078125 C2.27446741 43.53061892 2.23462224 49.7598743 2.21044922 55.98974609 C2.20037499 58.11020895 2.18671517 60.23065786 2.16943359 62.35107422 C2.14524761 65.39424068 2.13384381 68.43722391 2.125 71.48046875 C2.11467743 72.43259247 2.10435486 73.38471619 2.09371948 74.36569214 C2.09356842 75.24645416 2.09341736 76.12721619 2.09326172 77.03466797 C2.08659988 78.20048904 2.08659988 78.20048904 2.07980347 79.38986206 C2.15219855 81.54151514 2.15219855 81.54151514 4.3203125 83.30078125 C6.96249216 83.51050202 9.50805264 83.60191165 12.15234375 83.609375 C13.77278934 83.63458131 15.39323196 83.65997849 17.01367188 83.68554688 C19.55622217 83.71401098 22.09871921 83.73802576 24.64135742 83.75708008 C53.72557821 84.01745038 53.72557821 84.01745038 64.4765625 94.37890625 C75.10411048 105.69955519 75.63256113 118.98077493 75.62109375 133.88671875 C75.62537888 135.1461026 75.629664 136.40548645 75.63407898 137.70303345 C75.63978744 140.35034418 75.64129967 142.99726051 75.63598633 145.64453125 C75.63135059 148.32862076 75.63829649 151.01225774 75.65649414 153.69628906 C75.68120216 157.61406912 75.68514221 161.53136994 75.68359375 165.44921875 C75.6928035 166.62986908 75.70201324 167.81051941 75.71150208 169.02694702 C75.63951257 182.21912527 73.98171258 195.68266592 64.24609375 205.36328125 C56.69358077 211.68999369 47.8729446 214.38712364 38.07788086 214.46191406 C37.05589096 214.47152161 36.03390106 214.48112915 34.98094177 214.49102783 C33.33715294 214.49740265 33.33715294 214.49740265 31.66015625 214.50390625 C30.51930069 214.50960632 29.37844513 214.5153064 28.20301819 214.5211792 C25.7881055 214.53061789 23.37318 214.53715868 20.95825195 214.54101562 C17.29550124 214.55068179 13.63332132 214.58170057 9.97070312 214.61328125 C7.61719081 214.61981592 5.2636745 214.62506456 2.91015625 214.62890625 C1.82846664 214.64125305 0.74677704 214.65359985 -0.36769104 214.6663208 C-12.77702755 214.63065061 -22.8208111 212.04309637 -32.3671875 204.05078125 C-42.07767872 192.50317007 -41.95895813 180.08340212 -41.8046875 165.73828125 C-41.7634375 160.31390625 -41.7221875 154.88953125 -41.6796875 149.30078125 C-27.4896875 149.30078125 -13.2996875 149.30078125 1.3203125 149.30078125 C1.7578125 162.17578125 1.7578125 162.17578125 1.88842773 166.23388672 C1.9455896 167.81000732 1.9455896 167.81000732 2.00390625 169.41796875 C2.05889282 171.03614502 2.05889282 171.03614502 2.11499023 172.68701172 C2.15407893 175.28147661 2.15407893 175.28147661 3.3203125 177.30078125 C7.77777366 178.78660164 12.15162692 178.48515629 16.8203125 178.48828125 C17.78324219 178.50052734 18.74617188 178.51277344 19.73828125 178.52539062 C20.66253906 178.52732422 21.58679687 178.52925781 22.5390625 178.53125 C23.38404297 178.53535889 24.22902344 178.53946777 25.09960938 178.54370117 C27.60788123 178.44196534 27.60788123 178.44196534 30.3203125 176.30078125 C31.21937617 173.60359025 31.4507019 172.02912047 31.46557617 169.26000977 C31.47195602 168.4522963 31.47833588 167.64458282 31.48490906 166.81239319 C31.48602188 165.94360031 31.4871347 165.07480743 31.48828125 164.1796875 C31.49160965 163.2833812 31.49493805 162.38707489 31.49836731 161.46360779 C31.50342939 159.56811028 31.50577586 157.67260387 31.50561523 155.77709961 C31.50780144 152.8779431 31.52596392 149.97916729 31.54492188 147.08007812 C31.54785599 145.23828255 31.54984067 143.39648517 31.55078125 141.5546875 C31.56155952 140.25453453 31.56155952 140.25453453 31.57255554 138.92811584 C31.5679406 137.7118174 31.5679406 137.7118174 31.56323242 136.47094727 C31.56465744 135.76051773 31.56608246 135.0500882 31.56755066 134.31813049 C31.27171928 131.90428298 30.64577231 130.33802725 29.3203125 128.30078125 C25.48580871 127.02261332 21.84506506 127.12604515 17.84765625 127.08984375 C16.12564194 127.06175061 14.40363687 127.03308602 12.68164062 127.00390625 C9.97860214 126.96285857 7.27573165 126.9259572 4.57250977 126.89941406 C-9.921431 126.74489728 -22.47213426 126.28275969 -33.43359375 115.58984375 C-41.62308776 105.86097117 -42.29355598 93.20773341 -42.2109375 81.05078125 C-42.2136429 79.62076556 -42.21753394 78.19075169 -42.22253418 76.76074219 C-42.22838023 73.78562647 -42.22002723 70.81099608 -42.20117188 67.8359375 C-42.17838439 64.0605402 -42.19153425 60.28628105 -42.21546173 56.51092529 C-42.23005409 53.56453179 -42.2252531 50.6183993 -42.21495056 47.67199707 C-42.21232014 46.28161477 -42.21541996 44.89120718 -42.22486877 43.50085449 C-42.28894781 31.42854776 -40.8538366 19.70104808 -32.73046875 10.23828125 C-23.1325936 1.17057444 -12.64180931 -0.00999925 0 0 Z " fill="#FFBF47" transform="translate(1447.6796875,47.69921875)"/>
<path d="M0 0 C99.78378378 0 99.78378378 0 110 9 C122.9753111 22.99967776 121.35042742 42.1008752 121.31567383 59.96679688 C121.31251303 63.36100387 121.33604665 66.75433757 121.36132812 70.1484375 C121.46257546 104.27159756 121.46257546 104.27159756 110.21875 117.01953125 C94.11031779 132.69884538 64.75904605 127 46 127 C46 153.73 46 180.46 46 208 C30.82 208 15.64 208 0 208 C0 139.36 0 70.72 0 0 Z M46 31 C46 52.12 46 73.24 46 95 C68.5 97.5 68.5 97.5 75 92 C75.59993211 89.42748891 75.59993211 89.42748891 75.50170898 86.47460938 C75.51108994 85.34333618 75.52047089 84.21206299 75.53013611 83.04650879 C75.51890213 81.82459839 75.50766815 80.60268799 75.49609375 79.34375 C75.49754898 78.0899353 75.49900421 76.83612061 75.50050354 75.54431152 C75.49884195 72.89080253 75.48933013 70.23872146 75.46655273 67.58544922 C75.43816684 64.18555198 75.44090461 60.78655274 75.45364285 57.38658905 C75.46227233 54.14308478 75.44715382 50.89972612 75.43359375 47.65625 C75.43652939 46.4343396 75.43946503 45.2124292 75.44248962 43.95349121 C75.42980545 42.82221802 75.41712128 41.69094482 75.40405273 40.52539062 C75.39864975 39.5285022 75.39324677 38.53161377 75.38768005 37.5045166 C74.93636704 34.58891408 74.35326388 33.72315332 72 32 C63.77199903 29.25733301 54.67307455 31 46 31 Z " fill="#FFBF47" transform="translate(689,51)"/>
<path d="M0 0 C2.95778514 1.16860396 5.80077516 2.34630519 8.58203125 3.890625 C9.25459961 4.2633252 9.92716797 4.63602539 10.62011719 5.02001953 C11.34360352 5.42591309 12.06708984 5.83180664 12.8125 6.25 C13.58368164 6.68038574 14.35486328 7.11077148 15.14941406 7.55419922 C22.8691124 11.88531788 30.51332767 16.34581169 38.14770508 20.82519531 C45.7338419 25.27600445 53.36161155 29.6352066 61 34 C61 69.64 61 105.28 61 142 C47.14 149.92 47.14 149.92 33 158 C25.98126066 162.08232799 18.9643905 166.16657447 11.95751953 170.26904297 C8.91941135 172.04716638 5.87991156 173.82288546 2.83984375 175.59765625 C1.31061279 176.49061401 1.31061279 176.49061401 -0.24951172 177.40161133 C-2.26944156 178.57934023 -4.29057555 179.75500665 -6.31298828 180.9284668 C-11.07689544 183.69459371 -15.81874087 186.48709167 -20.51953125 189.359375 C-21.38344482 189.87991455 -22.2473584 190.4004541 -23.13745117 190.93676758 C-24.7461953 191.90731917 -26.34727473 192.8907413 -27.9387207 193.8894043 C-28.6524585 194.31648682 -29.36619629 194.74356934 -30.1015625 195.18359375 C-30.71338379 195.56056396 -31.32520508 195.93753418 -31.95556641 196.32592773 C-35.82321296 197.60113339 -39.08156844 196.4332065 -42.65527344 194.74755859 C-43.54762695 194.21984863 -44.43998047 193.69213867 -45.359375 193.1484375 C-46.3807959 192.5512793 -47.4022168 191.95412109 -48.45458984 191.33886719 C-50.08581787 190.36675293 -50.08581787 190.36675293 -51.75 189.375 C-53.47659674 188.36115067 -55.20320353 187.34731801 -56.9303894 186.33447266 C-58.73211741 185.27662718 -60.53156145 184.21496183 -62.33105469 183.15332031 C-65.98945995 181.00015444 -69.66762784 178.88255427 -73.3515625 176.7734375 C-73.94437012 176.43367889 -74.53717773 176.09392029 -75.14794922 175.74386597 C-78.00490312 174.10670023 -80.86281013 172.47122085 -83.72167969 170.83740234 C-84.74938477 170.24652832 -85.77708984 169.6556543 -86.8359375 169.046875 C-87.73876465 168.52963867 -88.6415918 168.01240234 -89.57177734 167.47949219 C-91.8455102 166.09412911 -93.97586487 164.731269 -96 163 C-96 162.34 -96 161.68 -96 161 C-94.9162207 160.38294189 -94.9162207 160.38294189 -93.81054688 159.75341797 C-80.15619044 151.97526515 -66.52171317 144.16776581 -52.95874023 136.23095703 C-44.49973367 131.28301084 -36.01367246 126.3828728 -27.51708984 121.49975586 C-25.5352695 120.35918951 -23.56655074 119.19549465 -21.61294556 118.00724792 C-19.04739352 116.50460624 -16.48226737 115.3693802 -13.7121582 114.29428101 C-8.19984361 111.95652737 -2.42779775 109.47889991 -0.03390312 103.64605713 C1.50844643 96.46331971 1.09663364 89.13405191 0.87890625 81.8359375 C0.86962722 79.47370115 0.86786384 77.1114244 0.87327576 74.74917603 C0.86740176 68.55559754 0.75997746 62.36785291 0.63085938 56.17578125 C0.51705052 49.84800881 0.49998468 43.52004187 0.47460938 37.19140625 C0.41071689 24.79218926 0.23946076 12.39698275 0 0 Z " fill="#FFBF47" transform="translate(332,269)"/>
<path d="M0 0 C2.47167969 1.16064453 2.47167969 1.16064453 4.921875 2.6328125 C5.85128906 3.18388672 6.78070313 3.73496094 7.73828125 4.30273438 C8.73214844 4.90408203 9.72601563 5.50542969 10.75 6.125 C12.91098128 7.40965697 15.07245664 8.69348314 17.234375 9.9765625 C18.35005859 10.64204102 19.46574219 11.30751953 20.61523438 11.99316406 C26.04712873 15.2137477 31.52410572 18.35501894 37 21.5 C46.39150026 26.90805639 55.76428218 32.34716394 65.11914062 37.81835938 C66.45041992 38.59663086 66.45041992 38.59663086 67.80859375 39.390625 C68.68411896 39.93234848 69.55964417 40.47407196 70.46170044 41.0322113 C73.12344548 42.60242048 75.82312102 43.75563868 78.69564819 44.89039612 C91.40722848 50.3437597 91.40722848 50.3437597 94.06556129 56.44601822 C95.70798163 63.77448413 95.17870272 71.25056213 94.85546875 78.69921875 C94.81999026 81.10477548 94.79296377 83.51047037 94.77400208 85.91621399 C94.70175673 92.22139621 94.51545845 98.51814025 94.30462646 104.82000732 C94.10956178 111.26100474 94.02334106 117.70337904 93.92773438 124.14648438 C93.72451106 136.76790513 93.40435681 149.38350224 93 162 C92.31042709 162.38482544 91.62085419 162.76965088 90.91038513 163.1661377 C72.91045591 173.19983556 72.91045591 173.19983556 55.0625 183.5 C54.11439453 184.05429688 53.16628906 184.60859375 52.18945312 185.1796875 C48.49736831 187.34165057 44.80909413 189.50483495 41.15966797 191.73828125 C40.26006348 192.28871094 39.36045898 192.83914062 38.43359375 193.40625 C37.2259436 194.15358398 37.2259436 194.15358398 35.99389648 194.91601562 C34 196 34 196 32 196 C32 160.69 32 125.38 32 89 C30.02 88.34 28.04 87.68 26 87 C23.53655721 85.65191783 21.14501823 84.27182278 18.75 82.8125 C17.23381085 81.90501595 15.71683112 80.99885194 14.19921875 80.09375 C13.37083496 79.59875 12.54245117 79.10375 11.68896484 78.59375 C6.67332189 75.62097742 1.61583729 72.72057036 -3.4375 69.8125 C-5.67969606 68.5208482 -7.92188344 67.22918132 -10.1640625 65.9375 C-11.29231445 65.2878125 -12.42056641 64.638125 -13.58300781 63.96875 C-16.96020003 62.02293134 -20.33585596 60.07447709 -23.7109375 58.125 C-37.12002683 50.38037555 -50.54665084 42.66749854 -64 35 C-62.72550183 31.17650548 -61.51923536 30.8637002 -58.05859375 28.91796875 C-57.01098877 28.32218018 -55.96338379 27.7263916 -54.8840332 27.11254883 C-53.74667725 26.47728271 -52.60932129 25.8420166 -51.4375 25.1875 C-50.26528914 24.52405432 -49.09366436 23.85957215 -47.92260742 23.1940918 C-46.11045505 22.16455135 -44.29790756 21.13577599 -42.4834137 20.11036682 C-36.22377939 16.5722901 -30.01664679 12.94700252 -23.8125 9.3125 C-21.00642119 7.67123464 -18.2005045 6.03027275 -15.38525391 4.40478516 C-13.89968043 3.52986297 -12.4294934 2.62754563 -10.98583984 1.68505859 C-6.81240819 -0.98278963 -4.75062478 -1.16330407 0 0 Z " fill="#FFBF47" transform="translate(300,1)"/>
<path d="M0 0 C2.3581543 1.04711914 2.3581543 1.04711914 4.82421875 2.53515625 C6.22510742 3.36768921 6.22510742 3.36768921 7.65429688 4.21704102 C8.65525391 4.82604248 9.65621094 5.43504395 10.6875 6.0625 C12.83668648 7.34467757 14.9864472 8.62589297 17.13671875 9.90625 C18.2561084 10.5765625 19.37549805 11.246875 20.52880859 11.9375 C27.38806675 16.02875759 34.33935402 19.96433487 41.26831055 23.93579102 C46.91811092 27.18536971 52.49975755 30.50285065 58 34 C55.33859868 36.83958631 52.82741435 38.86851561 49.421875 40.7421875 C48.52122314 41.24339111 47.62057129 41.74459473 46.69262695 42.26098633 C45.72156006 42.79361084 44.75049316 43.32623535 43.75 43.875 C41.65411611 45.04147544 39.55908947 46.20949225 37.46484375 47.37890625 C36.38960449 47.97848145 35.31436523 48.57805664 34.20654297 49.19580078 C29.20704519 52.00882717 24.25945968 54.90837243 19.3125 57.8125 C9.32700296 63.66461893 -0.7075722 69.42580764 -10.77026367 75.14379883 C-12.92207837 76.36868288 -15.06074251 77.61703756 -17.18379211 78.89112854 C-19.83422022 80.42939842 -22.47574455 81.6179899 -25.33056641 82.7270813 C-30.83280125 85.05976046 -36.57812478 87.53003996 -38.96417427 93.35298157 C-40.507236 100.53661926 -40.09666347 107.86494827 -39.87890625 115.1640625 C-39.86962722 117.52629885 -39.86786384 119.8885756 -39.87327576 122.25082397 C-39.86740176 128.44440246 -39.75997746 134.63214709 -39.63085938 140.82421875 C-39.51705052 147.15199119 -39.49998468 153.47995813 -39.47460938 159.80859375 C-39.41071689 172.20781074 -39.23946076 184.60301725 -39 197 C-41.24706828 195.88345076 -43.49336957 194.76540273 -45.73925781 193.64648438 C-46.37203644 193.33225525 -47.00481506 193.01802612 -47.6567688 192.6942749 C-52.13461161 190.46137161 -56.47624378 188.09706613 -60.75 185.5 C-62.16328573 184.65494955 -63.57741134 183.8113028 -64.9921875 182.96875 C-66.15379395 182.27652344 -66.15379395 182.27652344 -67.33886719 181.5703125 C-73.40567615 177.99033862 -79.52432057 174.49809893 -85.63317871 170.99047852 C-87.29498078 170.03612966 -88.95609704 169.08058691 -90.6171875 168.125 C-92.06520752 167.29355469 -92.06520752 167.29355469 -93.54248047 166.4453125 C-95.39689593 165.35469661 -97.20996997 164.19335335 -99 163 C-99.44456291 161.11192131 -99.44456291 161.11192131 -99.54244995 158.76705933 C-99.58559326 157.87870392 -99.62873657 156.99034851 -99.67318726 156.07507324 C-99.72063583 154.60874451 -99.72063583 154.60874451 -99.76904297 153.11279297 C-99.81285095 152.08481598 -99.85665894 151.05683899 -99.90179443 149.99771118 C-100.28101078 140.47646652 -100.48640906 130.94760211 -100.6453228 121.42037773 C-100.75236666 115.02121212 -100.91136351 108.63344776 -101.20166016 102.23974609 C-103.08777169 59.69262881 -103.08777169 59.69262881 -96.48165894 51.19500732 C-90.66613508 45.22676266 -83.05558044 42.43770334 -75.23095703 40.03631592 C-71.0946104 38.70960008 -67.71327826 36.76108929 -64.08203125 34.4296875 C-61.99332785 33.24278263 -59.90352626 32.05780776 -57.8125 30.875 C-48.91280818 25.81286483 -40.03210871 20.72045117 -31.1875 15.5625 C-30.20330078 14.98983398 -29.21910156 14.41716797 -28.20507812 13.82714844 C-23.8899123 11.30825484 -19.59465346 8.76767658 -15.3515625 6.12890625 C-14.65909424 5.70085693 -13.96662598 5.27280762 -13.25317383 4.83178711 C-12.01229223 4.06015826 -10.77709633 3.27926017 -9.54956055 2.48657227 C-6.14146293 0.36669558 -3.98447957 -0.38150853 0 0 Z " fill="#FFBF47" transform="translate(99,0)"/>
<path d="M0 0 C0.33 34.98 0.66 69.96 1 106 C6.94 109.3 12.88 112.6 19 116 C22.88507218 118.23551682 26.76148613 120.47838095 30.625 122.75 C32.68227479 123.9544559 34.73956696 125.15888213 36.796875 126.36328125 C38.33891602 127.26747803 38.33891602 127.26747803 39.91210938 128.18994141 C44.89635109 131.11160238 49.88550014 134.02483108 54.875 136.9375 C56.3297876 137.78852295 56.3297876 137.78852295 57.81396484 138.65673828 C63.24146494 141.82701119 68.68502671 144.96642792 74.1484375 148.07421875 C75.93509021 149.09361835 77.72150487 150.11343404 79.50787354 151.1333313 C81.21073627 152.10264995 82.91758221 153.06496043 84.62451172 154.02709961 C85.6610791 154.61885986 86.69764648 155.21062012 87.765625 155.8203125 C88.68118164 156.33867676 89.59673828 156.85704102 90.54003906 157.39111328 C93.0440442 159.0288062 94.96883144 160.81290694 97 163 C76.05135076 175.25098945 76.05135076 175.25098945 65.8984375 181.09375 C65.02924179 181.59412025 65.02924179 181.59412025 64.14248657 182.104599 C61.34052609 183.71715374 58.53744662 185.32771986 55.73291016 186.93579102 C54.19449463 187.82028931 54.19449463 187.82028931 52.625 188.72265625 C51.65691406 189.27840332 50.68882813 189.83415039 49.69140625 190.40673828 C47.25964745 191.84629361 44.91411592 193.36823072 42.5625 194.93359375 C39.52234804 196.8234813 37.63633554 197.84404609 34 197 C31.445622 195.71242735 29.10334871 194.38558841 26.6875 192.875 C25.15942448 191.94827771 23.63074377 191.02255282 22.1015625 190.09765625 C20.86841309 189.34572998 20.86841309 189.34572998 19.61035156 188.57861328 C14.96083623 185.76681323 10.259316 183.04428632 5.5625 180.3125 C4.5521167 179.7232373 3.5417334 179.13397461 2.50073242 178.52685547 C-4.98665484 174.16218943 -12.49055574 169.82658137 -20 165.5 C-28.8240844 160.41563393 -37.63819774 155.3146525 -46.4375 150.1875 C-47.45650391 149.59453125 -48.47550781 149.0015625 -49.52539062 148.390625 C-50.46447266 147.84277344 -51.40355469 147.29492188 -52.37109375 146.73046875 C-53.19536865 146.24989014 -54.01964355 145.76931152 -54.86889648 145.27416992 C-56.61029285 144.23300282 -58.31184188 143.12543875 -60 142 C-60.36914349 140.06722832 -60.36914349 140.06722832 -60.36076355 137.65939331 C-60.36488754 136.74791534 -60.36901154 135.83643738 -60.3732605 134.89733887 C-60.36247467 133.89464966 -60.35168884 132.89196045 -60.34057617 131.85888672 C-60.34101425 130.80520905 -60.34145233 129.75153137 -60.34190369 128.66592407 C-60.33980751 125.17032577 -60.31643703 121.67520239 -60.29296875 118.1796875 C-60.28737576 115.76116193 -60.28310426 113.34263296 -60.28010559 110.92410278 C-60.26863353 104.54863148 -60.23914592 98.17336416 -60.20599365 91.79797363 C-60.17534367 85.29633342 -60.16161111 78.79466034 -60.14648438 72.29296875 C-60.11427859 59.52855864 -60.06362775 46.76429015 -60 34 C-59.28668015 33.5884819 -58.57336029 33.17696381 -57.83842468 32.75297546 C-54.52118355 30.83923331 -51.20394865 28.92548038 -47.88671875 27.01171875 C-47.29006598 26.66750067 -46.6934132 26.32328259 -46.07868004 25.96863365 C-39.39206237 22.11100624 -32.70551079 18.25326459 -26.01953125 14.39453125 C-24.96185547 13.78416016 -23.90417969 13.17378906 -22.81445312 12.54492188 C-20.73887288 11.34710816 -18.66335614 10.14918438 -16.58789062 8.95117188 C-14.5898141 7.79819572 -12.59132143 6.64594024 -10.59228516 5.49462891 C-8.97559209 4.56249527 -7.36041164 3.62772713 -5.74755859 2.68896484 C-1.10812254 0 -1.10812254 0 0 0 Z " fill="#FFBF47" transform="translate(60,269)"/>
<path d="M0 0 C37.29 0 74.58 0 113 0 C113 12.87 113 25.74 113 39 C101.78 39 90.56 39 79 39 C79 94.77 79 150.54 79 208 C64.15 208 49.3 208 34 208 C34 152.23 34 96.46 34 39 C22.78 39 11.56 39 0 39 C0 26.13 0 13.26 0 0 Z " fill="#FFBF47" transform="translate(819,51)"/>
<path d="M0 0 C14.85 0 29.7 0 45 0 C45 68.64 45 137.28 45 208 C30.15 208 15.3 208 0 208 C0 139.36 0 70.72 0 0 Z " fill="#FFBF47" transform="translate(951,51)"/>
<path d="M0 0 C0.78375 0.495 1.5675 0.99 2.375 1.5 C2.375 0.51 2.375 -0.48 2.375 -1.5 C4.685 -1.5 6.995 -1.5 9.375 -1.5 C9.47428585 3.9259718 9.54666467 9.35140841 9.59472656 14.77807617 C9.61477361 16.62191994 9.6420188 18.46570068 9.67675781 20.30932617 C9.72558208 22.9680949 9.74803772 25.62601915 9.765625 28.28515625 C9.78627014 29.10210464 9.80691528 29.91905304 9.82818604 30.76075745 C9.83040657 36.49561747 8.64398383 39.76819369 5.375 44.5 C0.88975123 48.40745471 -4.52434351 49.09063224 -10.30078125 48.81640625 C-15.31684032 48.13354779 -18.30603285 46.07586519 -21.5 42.3125 C-22.551875 40.9203125 -22.551875 40.9203125 -23.625 39.5 C-21.23926621 37.60786631 -19.55324652 36.47608217 -16.625 35.5 C-15.965 36.325 -15.305 37.15 -14.625 38 C-11.25418986 40.80900845 -9.80304115 41.26937773 -5.5625 40.98828125 C-2.14363105 40.12667113 -0.61533712 38.29891158 1.375 35.5 C1.79486946 32.78836222 1.79486946 32.78836222 1.375 30.5 C0.75625 30.995 0.1375 31.49 -0.5 32 C-4.95840603 34.1400349 -8.76451431 34.26939195 -13.625 33.5 C-18.36809603 31.748703 -21.61080074 29.14545325 -24.125 24.75 C-26.30317623 19.57683145 -26.6659656 14.64516345 -24.89453125 9.29296875 C-22.92131714 4.95189772 -20.70789149 2.11723814 -16.625 -0.5 C-11.01341426 -2.37052858 -5.45214398 -2.25605958 0 0 Z M-16.625 9.5 C-18.32432147 12.43519164 -18.64145196 14.10515287 -18.5 17.5 C-17.49030833 20.9618 -16.08552585 22.89035137 -13.625 25.5 C-10.47588521 27.07455739 -8.10491184 26.84799118 -4.625 26.5 C-1.64827416 24.72719439 0.80304007 22.64391985 2.375 19.5 C2.75212577 14.50308353 2.46790612 11.50932275 -0.625 7.5 C-6.41346851 3.64102099 -12.01012818 4.4779336 -16.625 9.5 Z " fill="#FFBF47" transform="translate(896.625,367.5)"/>
<path d="M0 0 C6.3483261 3.8499526 10.69378305 9.34246151 12.5625 16.5 C13.35987409 24.49228446 13.4991207 31.86944082 8.5625 38.5 C3.73006266 44.24668224 -1.35456539 47.46743594 -8.75 48.4375 C-16.07082135 48.83919116 -22.46974337 47.36239133 -28.3125 42.8125 C-33.99221444 37.42748773 -36.10062609 30.8793608 -36.6875 23.25 C-36.19971893 15.933284 -33.78537327 8.70578002 -28.4375 3.5 C-20.42895315 -2.51402283 -9.30945091 -4.03108263 0 0 Z M-23.30859375 9.15625 C-28.02993699 14.50031237 -28.74656714 18.73149785 -28.64453125 25.78125 C-28.22577231 31.28042405 -25.90528231 34.25575645 -21.9375 37.8125 C-17.62663422 41.41434181 -14.02826097 41.9582591 -8.4375 41.5 C-2.10987899 39.32783159 1.55340106 36.11637809 4.8125 30.25 C6.56295877 23.83165117 6.19460066 18.12146103 2.890625 12.29296875 C-0.23183474 8.0776481 -3.83444814 5.97497833 -8.8125 4.5 C-14.31267012 4.5 -19.09610112 5.42744651 -23.30859375 9.15625 Z " fill="#FFBF47" transform="translate(1145.4375,354.5)"/>
<path d="M0 0 C2.31 0 4.62 0 7 0 C7.33 0.66 7.66 1.32 8 2 C8.99 1.34 9.98 0.68 11 0 C17.45876157 -1.07646026 21.69195663 0.38601303 27 4 C27.61875 3.34 28.2375 2.68 28.875 2 C33.25354423 -0.80226831 36.92856727 -0.81142924 42 0 C46.09786819 2.0489341 48.38586645 3.7257228 50 8 C50.22705078 11.02441406 50.22705078 11.02441406 50.1953125 14.515625 C50.18886719 15.76601563 50.18242188 17.01640625 50.17578125 18.3046875 C50.15902344 19.60664063 50.14226562 20.90859375 50.125 22.25 C50.11597656 23.56742187 50.10695313 24.88484375 50.09765625 26.2421875 C50.07408533 29.49497462 50.04118022 32.74739589 50 36 C47.69 36 45.38 36 43 36 C42.98541748 35.25838623 42.97083496 34.51677246 42.95581055 33.75268555 C42.88140543 30.39709369 42.78471994 27.04250506 42.6875 23.6875 C42.65366211 21.93663086 42.65366211 21.93663086 42.61914062 20.15039062 C42.58369141 19.03212891 42.54824219 17.91386719 42.51171875 16.76171875 C42.48553467 15.73006592 42.45935059 14.69841309 42.43237305 13.63549805 C42.20150599 10.98481413 42.20150599 10.98481413 40.65551758 9.16333008 C38.06859531 7.34550312 36.06552298 7.61680963 33 8 C31.23328372 9.10932803 31.23328372 9.10932803 30 11 C29.49454132 13.70484875 29.49454132 13.70484875 29.48828125 16.76171875 C29.45283203 17.87998047 29.41738281 18.99824219 29.38085938 20.15039062 C29.35830078 21.31763672 29.33574219 22.48488281 29.3125 23.6875 C29.27833984 24.86634766 29.24417969 26.04519531 29.20898438 27.25976562 C29.12642075 30.17308225 29.05729678 33.08609466 29 36 C26.69 36 24.38 36 22 36 C21.98541748 35.40050537 21.97083496 34.80101074 21.95581055 34.18334961 C21.88076179 31.43412545 21.78429248 28.68604111 21.6875 25.9375 C21.66494141 24.99455078 21.64238281 24.05160156 21.61914062 23.08007812 C21.39899472 17.33627141 20.6479756 13.11847294 18 8 C15.03 8 12.06 8 9 8 C7.96285478 11.11143567 7.79968139 13.49468096 7.68359375 16.76171875 C7.64169922 17.87998047 7.59980469 18.99824219 7.55664062 20.15039062 C7.51732422 21.31763672 7.47800781 22.48488281 7.4375 23.6875 C7.37272461 25.45577148 7.37272461 25.45577148 7.30664062 27.25976562 C7.20048824 30.17305883 7.09843758 33.08643757 7 36 C4.69 36 2.38 36 0 36 C0 24.12 0 12.24 0 0 Z " fill="#FFBF47" transform="translate(1166,366)"/>
<path d="M0 0 C8.23392373 4.80551298 13.39411094 11.11990879 16.2421875 20.30859375 C17.83028691 30.25276761 16.63989593 39.20746914 10.69921875 47.44921875 C4.21480493 55.46199556 -2.26567994 58.93027523 -12.51953125 60.1484375 C-21.48659887 60.59192335 -28.71175837 57.84140136 -35.7578125 52.30859375 C-42.74733286 45.31907339 -45.82466017 38.05766397 -46.1328125 28.24609375 C-45.86142985 19.31308162 -42.56630259 12.11031049 -36.7578125 5.30859375 C-26.35941173 -3.43128073 -12.53291507 -5.93772534 0 0 Z M-33.7578125 9.30859375 C-39.87549164 15.93235827 -41.29446934 23.12355938 -41.1328125 31.984375 C-40.36128042 38.82368542 -37.39605235 44.14408962 -32.3203125 48.74609375 C-25.3631625 54.1000744 -18.44371823 56.24650845 -9.7578125 55.30859375 C-2.13104376 53.45789407 3.63447813 49.67869887 8.2421875 43.30859375 C12.095591 35.73241059 13.46988542 28.97314597 10.9921875 20.74609375 C8.06954665 12.7394172 3.47426629 7.50300497 -4.1328125 3.55859375 C-15.41053418 -0.3302758 -24.66393058 1.59203763 -33.7578125 9.30859375 Z " fill="#FFBF47" transform="translate(1593.7578125,12.69140625)"/>
<path d="M0 0 C2.31 0 4.62 0 7 0 C7 0.99 7 1.98 7 3 C7.763125 2.505 8.52625 2.01 9.3125 1.5 C14.30377735 -0.53035011 18.67697391 -0.71396773 24 0 C28.40991114 2.16486547 31.44510336 4.80266981 34 9 C36.18663349 15.52608654 36.36420637 20.55216445 34 27 C31.62894333 31.33331047 29.58810123 34.0628017 25 36 C18.46144413 37.61585001 14.07548705 36.76158502 8 34 C7.67 38.95 7.34 43.9 7 49 C4.69 49 2.38 49 0 49 C0 32.83 0 16.66 0 0 Z M10 9 C7.14987619 12.46086463 6.4664199 15.51719663 6.64453125 20.00390625 C7.36952574 24.07502915 9.62076697 26.86705858 12.75 29.4375 C16.30253267 30.32563317 19.51431141 30.13088049 23 29 C26.45099259 25.54900741 27.89093141 23.09068587 28.375 18.25 C28.35058775 14.89941932 27.75601354 13.15105468 25.625 10.5625 C22.50666913 7.51841511 21.9438569 7.05243649 17.625 6.8125 C13.45006641 6.99918777 13.45006641 6.99918777 10 9 Z " fill="#FFBF47" transform="translate(1276,366)"/>
<path d="M0 0 C4.01684726 2.93915653 6.95784056 6.06102168 8.5625 10.875 C6.48086944 12.13884713 5.08763785 12.89193993 2.625 12.8125 C0.5625 11.875 0.5625 11.875 -1.8125 9.375 C-4.84916568 6.48293745 -6.29144843 5.96137607 -10.4375 5.875 C-13.27829146 6.26053207 -13.27829146 6.26053207 -15.4375 7.875 C-16.69079784 10.72789698 -16.69079784 10.72789698 -16.4375 13.875 C-12.85407834 18.66840819 -7.73896815 19.76284844 -2.28125 21.49804688 C2.33355005 23.07792712 4.94384929 24.53027125 7.5625 28.875 C8.93562417 33.18946119 8.87687353 36.89489428 7.5 41.1875 C4.68279805 45.09523174 2.01209324 47.26676766 -2.734375 48.4453125 C-9.56062309 49.44169033 -15.63901809 48.6600214 -21.296875 44.51171875 C-24.4518508 41.60463391 -26.17629902 39.31541666 -26.4375 34.875 C-23.4375 32.875 -23.4375 32.875 -19.4375 32.875 C-18.0648318 34.84821053 -16.73322383 36.85043152 -15.4375 38.875 C-12.02988269 41.460089 -8.59591742 41.17202982 -4.4375 40.875 C-2.06568755 40.27519748 -2.06568755 40.27519748 -0.4375 38.875 C0.6578531 37.07850035 0.6578531 37.07850035 0.5625 34.875 C-1.02974711 30.9904127 -2.16566937 29.9971183 -6.0546875 28.25 C-7.46826693 27.77440318 -8.88790199 27.31649704 -10.3125 26.875 C-15.92385792 25.11697894 -19.5166526 23.52634749 -23.4375 18.875 C-25.31718188 15.11563624 -25.09565796 10.95801699 -24.4375 6.875 C-19.23709078 -2.30800109 -9.50477889 -3.11065491 0 0 Z " fill="#FFBF47" transform="translate(559.4375,354.125)"/>
<path d="M0 0 C3.52981904 3.04848008 5.596809 5.53530137 7 10 C4.91836944 11.26384713 3.52513785 12.01693993 1.0625 11.9375 C-1 11 -1 11 -3.25 8.5625 C-6.63887241 5.40468707 -9.36539795 4.16187029 -14 4 C-16.84507065 4.67570428 -19.35955112 5.76466804 -22 7 C-22.99 7.33 -23.98 7.66 -25 8 C-26.18391223 10.37625345 -26.18391223 10.37625345 -27 13 C-27.33 13.99 -27.66 14.98 -28 16 C-28.65539923 23.34906673 -28.84035785 29.19157057 -24 35 C-20.01758345 38.09244084 -16.35508228 39.33617215 -11.3125 39 C-7.29485271 38.32115615 -4.87680208 36.9639779 -2 34 C-1.34 33.01 -0.68 32.02 0 31 C2.02045442 31.60183749 4.02111039 32.27306096 6 33 C6.33 33.66 6.66 34.32 7 35 C4.01964196 40.33980816 0.6973434 43.60864014 -5 46 C-12.0546233 47.696023 -18.54849061 47.44395017 -25 44 C-31.64015654 39.48794967 -34.57611176 35.17777541 -36.6875 27.5 C-37.66270548 19.69835614 -36.85719075 12.37068972 -32.48828125 5.6875 C-24.39310819 -4.20862167 -11.25505274 -6.67917538 0 0 Z " fill="#FFBF47" transform="translate(818,356)"/>
<path d="M0 0 C3.5 1.8125 3.5 1.8125 6 4 C6.86625 4.680625 6.86625 4.680625 7.75 5.375 C11.27629 9.959177 11 14.30267949 11 20 C2.42 20.33 -6.16 20.66 -15 21 C-12.66151858 26.91731018 -12.66151858 26.91731018 -9 29 C-4.81619104 29.30427702 -1.52829315 29.44266449 2 27 C2.33 26.34 2.66 25.68 3 25 C4.98 25.33 6.96 25.66 9 26 C9.495 27.485 9.495 27.485 10 29 C6.34948665 33.09299981 3.29044738 35.43888438 -2 37 C-8.31889044 37.25074962 -13.15011478 36.27251793 -18 32 C-22.46902773 26.20234241 -23.88851121 21.31412123 -23 14 C-21.67577372 8.93926264 -19.7235209 5.05300595 -15.4375 1.9375 C-10.48130928 -0.73050547 -5.48685186 -0.92286499 0 0 Z M-13 9 C-13.66 10.65 -14.32 12.3 -15 14 C-9.06 14 -3.12 14 3 14 C1.8440727 9.3762908 0.92583175 8.49825657 -3 6 C-7.17829685 5.26879805 -9.70203058 6.41510505 -13 9 Z " fill="#FFBF47" transform="translate(1362,366)"/>
<path d="M0 0 C5.29042399 3.6529118 7.39080497 7.52932532 8.625 13.8125 C8.13 16.2875 8.13 16.2875 7.625 18.8125 C-0.955 18.8125 -9.535 18.8125 -18.375 18.8125 C-15.85947675 24.60264432 -15.85947675 24.60264432 -11.375 27.8125 C-7.91730809 28.39592353 -7.91730809 28.39592353 -4.375 27.8125 C-2.696702 26.49383728 -1.02885233 25.16169532 0.625 23.8125 C4.04833251 23.97172477 5.1881237 24.3756237 7.625 26.8125 C1.52309214 34.90510121 1.52309214 34.90510121 -4.375 35.8125 C-10.69462707 35.87445713 -15.54997251 35.18868772 -20.375 30.8125 C-24.85347906 25.77569596 -26.13142395 21.19636571 -25.796875 14.49609375 C-24.92888505 8.97471325 -22.83913094 5.20520992 -18.8125 1.375 C-13.10421993 -2.28415389 -6.27138478 -2.20659835 0 0 Z M-16.375 8.8125 C-16.705 10.1325 -17.035 11.4525 -17.375 12.8125 C-11.435 12.8125 -5.495 12.8125 0.625 12.8125 C-1.26983482 7.59505682 -1.26983482 7.59505682 -5.375 4.8125 C-10.42700696 4.06007343 -12.84104209 5.17757187 -16.375 8.8125 Z " fill="#FFBF47" transform="translate(599.375,367.1875)"/>
<path d="M0 0 C4.86168506 2.47311805 6.86141737 5.47654588 8.859375 10.3515625 C8.859375 13.3215625 8.859375 16.2915625 8.859375 19.3515625 C0.279375 19.3515625 -8.300625 19.3515625 -17.140625 19.3515625 C-14.62510175 25.14170682 -14.62510175 25.14170682 -10.140625 28.3515625 C-6.68293309 28.93498603 -6.68293309 28.93498603 -3.140625 28.3515625 C-1.462327 27.03289978 0.20552267 25.70075782 1.859375 24.3515625 C4.671875 24.6015625 4.671875 24.6015625 6.859375 25.3515625 C7.189375 26.6715625 7.519375 27.9915625 7.859375 29.3515625 C2.64770533 33.95722407 -0.81210342 36.6618206 -8.015625 36.2265625 C-13.54642621 35.49406055 -17.78768381 34.24910135 -21.45703125 29.73046875 C-24.87213614 24.00689574 -25.02398338 17.83844673 -24.140625 11.3515625 C-20.53463314 0.57215366 -10.38790654 -3.14670162 0 0 Z M-16.140625 10.3515625 C-16.140625 11.3415625 -16.140625 12.3315625 -16.140625 13.3515625 C-10.200625 13.3515625 -4.260625 13.3515625 1.859375 13.3515625 C-0.41234209 7.6661166 -0.41234209 7.6661166 -3.015625 5.9765625 C-9.22075954 4.15152293 -11.75988572 5.97082322 -16.140625 10.3515625 Z " fill="#FFBF47" transform="translate(1435.140625,366.6484375)"/>
<path d="M0 0 C4.45146251 2.18526342 7.18885145 4.9394521 10 9 C11 12 11 12 11 20 C2.42 20 -6.16 20 -15 20 C-12.83213255 26.54126074 -12.83213255 26.54126074 -10.25 28.4375 C-6.98376521 29.2540587 -4.35661242 29.35332762 -1 29 C0.678298 27.68133728 2.34614767 26.34919532 4 25 C6.8125 25.25 6.8125 25.25 9 26 C9.495 27.485 9.495 27.485 10 29 C7.5798351 33.20898244 4.77176383 35.09839496 0.27734375 36.5546875 C-5.50331488 37.68503927 -10.96546798 37.05376138 -15.9375 33.8125 C-20.2794634 30.22654905 -21.96115827 26.1610312 -22.875 20.6875 C-23.26350961 15.67065855 -22.45898193 11.41292044 -20 7 C-14.00678891 0.39777901 -8.79443987 -0.89561481 0 0 Z M-13 9 C-13.66 10.65 -14.32 12.3 -15 14 C-9.06 14 -3.12 14 3 14 C2.56737609 9.06094023 2.56737609 9.06094023 -0.25 7.1875 C-5.35668678 4.9823398 -8.61533711 5.56337233 -13 9 Z " fill="#FFBF47" transform="translate(1061,366)"/>
<path d="M0 0 C4.45146251 2.18526342 7.18885145 4.9394521 10 9 C11 12 11 12 11 20 C2.42 20 -6.16 20 -15 20 C-12.83213255 26.54126074 -12.83213255 26.54126074 -10.25 28.4375 C-6.98376521 29.2540587 -4.35661242 29.35332762 -1 29 C0.678298 27.68133728 2.34614767 26.34919532 4 25 C6.8125 25.25 6.8125 25.25 9 26 C9.495 27.485 9.495 27.485 10 29 C7.5798351 33.20898244 4.77176383 35.09839496 0.27734375 36.5546875 C-5.50331488 37.68503927 -10.96546798 37.05376138 -15.9375 33.8125 C-20.23667964 30.27199912 -21.67951566 26.52846378 -22.8125 21.125 C-23.36217474 14.85153831 -22.1334797 10.02650809 -18.125 5.125 C-13.02492711 -0.61591974 -7.34967603 -0.86404029 0 0 Z M-13 9 C-13.66 10.65 -14.32 12.3 -15 14 C-9.06 14 -3.12 14 3 14 C2.56737609 9.06094023 2.56737609 9.06094023 -0.25 7.1875 C-5.35668678 4.9823398 -8.61533711 5.56337233 -13 9 Z " fill="#FFBF47" transform="translate(733,366)"/>
<path d="M0 0 C5.5227953 3.94485379 8.48819864 8.16787195 9.625 14.875 C9.7146857 21.18663144 8.39679675 25.81285173 4.625 30.875 C-0.37498748 34.60048087 -5.10657361 36.14472575 -11.375 35.875 C-17.76127533 34.57940016 -21.90960922 31.44981663 -25.625 26.0625 C-28.06469225 18.94673095 -27.49144977 13.61013731 -24.375 6.875 C-18.83587389 -1.91120004 -9.38174076 -3.12724692 0 0 Z M-18.375 10.875 C-19.9824907 14.08998139 -19.84814549 17.38798258 -19.375 20.875 C-17.7625246 23.98477399 -16.32524501 26.0944416 -13.625 28.3125 C-10.03787632 29.20928092 -6.84438169 29.02917054 -3.375 27.875 C-0.18061782 25.21301485 1.2880264 23.7186344 2.03125 19.65234375 C2.21942403 14.95583364 1.68444499 11.61432166 -1.375 7.875 C-8.17683664 3.34044224 -13.21374096 5.58785659 -18.375 10.875 Z " fill="#FFBF47" transform="translate(856.375,367.125)"/>
<path d="M0 0 C2.31 0 4.62 0 7 0 C7.33 0.66 7.66 1.32 8 2 C8.56847656 1.67644531 9.13695312 1.35289062 9.72265625 1.01953125 C13.42785357 -0.63922775 17.01477632 -0.4633981 21 0 C24.72210861 1.61830809 26.89930441 3.53385228 29 7 C30.07591386 10.31544947 30.11536628 13.38820873 30.09765625 16.859375 C30.09443359 17.97441406 30.09121094 19.08945312 30.08789062 20.23828125 C30.07951172 21.39714844 30.07113281 22.55601562 30.0625 23.75 C30.05798828 24.92433594 30.05347656 26.09867187 30.04882812 27.30859375 C30.03705094 30.20578072 30.02060326 33.10286454 30 36 C27.69 36 25.38 36 23 36 C22.98541748 35.3294458 22.97083496 34.6588916 22.95581055 33.96801758 C22.881117 30.91561178 22.78452701 27.86427415 22.6875 24.8125 C22.66494141 23.75740234 22.64238281 22.70230469 22.61914062 21.61523438 C22.5659668 20.08286133 22.5659668 20.08286133 22.51171875 18.51953125 C22.48553467 17.58214111 22.45935059 16.64475098 22.43237305 15.67895508 C21.91652062 12.48276724 20.97625403 10.55691631 19 8 C14.60907888 7.45113486 12.71499122 7.52333918 9 10 C8.00544091 12.98367726 7.80440368 15.2004192 7.68359375 18.32421875 C7.64169922 19.35224609 7.59980469 20.38027344 7.55664062 21.43945312 C7.51732422 22.51130859 7.47800781 23.58316406 7.4375 24.6875 C7.39431641 25.77095703 7.35113281 26.85441406 7.30664062 27.97070312 C7.20053162 30.64700791 7.09847639 33.32340526 7 36 C4.69 36 2.38 36 0 36 C0 24.12 0 12.24 0 0 Z " fill="#FFBF47" transform="translate(914,366)"/>
<path d="M0 0 C2.31 0 4.62 0 7 0 C7.33 0.66 7.66 1.32 8 2 C8.99 1.34 9.98 0.68 11 0 C15.83368204 -0.71548478 19.9261943 -0.44904602 24.4375 1.4375 C29.25897956 6.25897956 30.1707509 12.24739878 30.29296875 18.91015625 C30.27331071 20.96114461 30.23795301 23.01203805 30.1875 25.0625 C30.16719727 26.64708008 30.16719727 26.64708008 30.14648438 28.26367188 C30.1114709 30.84299809 30.06236675 33.42121494 30 36 C27.69 36 25.38 36 23 36 C22.98018066 35.39526855 22.96036133 34.79053711 22.93994141 34.16748047 C22.84413701 31.40291491 22.73468445 28.63904826 22.625 25.875 C22.5940625 24.92367188 22.563125 23.97234375 22.53125 22.9921875 C22.32458612 18.03225445 22.09247669 13.59140569 20 9 C16.9167365 7.45836825 14.39121901 7.70252465 11 8 C7.9526764 11.00463907 7.59954441 13.45713004 7.48828125 17.640625 C7.43510742 19.24550781 7.43510742 19.24550781 7.38085938 20.8828125 C7.35830078 21.99398438 7.33574219 23.10515625 7.3125 24.25 C7.27833984 25.37664062 7.24417969 26.50328125 7.20898438 27.6640625 C7.12656986 30.44260901 7.05739702 33.22084252 7 36 C4.69 36 2.38 36 0 36 C0 24.12 0 12.24 0 0 Z " fill="#FFBF47" transform="translate(1451,366)"/>
<path d="M0 0 C2.31 0 4.62 0 7 0 C7.33 0.66 7.66 1.32 8 2 C8.99 1.34 9.98 0.68 11 0 C15.52250916 -0.59022577 19.69563971 -0.52729459 23.9375 1.1875 C27.25491893 4.10280754 28.8597073 6.70739639 29.34057617 11.13793945 C29.32486572 12.28480225 29.30915527 13.43166504 29.29296875 14.61328125 C29.28330078 15.86044922 29.27363281 17.10761719 29.26367188 18.39257812 C29.23853516 19.68615234 29.21339844 20.97972656 29.1875 22.3125 C29.16719727 24.28186523 29.16719727 24.28186523 29.14648438 26.29101562 C29.11117443 29.52776077 29.0618528 32.76367105 29 36 C26.69 36 24.38 36 22 36 C21.98541748 35.25838623 21.97083496 34.51677246 21.95581055 33.75268555 C21.88140543 30.39709369 21.78471994 27.04250506 21.6875 23.6875 C21.66494141 22.52025391 21.64238281 21.35300781 21.61914062 20.15039062 C21.58369141 19.03212891 21.54824219 17.91386719 21.51171875 16.76171875 C21.48553467 15.73006592 21.45935059 14.69841309 21.43237305 13.63549805 C21.19842302 10.9910021 21.19842302 10.9910021 19.68676758 9.16723633 C16.81468388 7.17976605 14.35806982 7.58024127 11 8 C7.96161104 11.01684011 7.59970523 13.4510834 7.48828125 17.640625 C7.43510742 19.24550781 7.43510742 19.24550781 7.38085938 20.8828125 C7.35830078 21.99398438 7.33574219 23.10515625 7.3125 24.25 C7.27833984 25.37664062 7.24417969 26.50328125 7.20898438 27.6640625 C7.12656986 30.44260901 7.05739702 33.22084252 7 36 C4.69 36 2.38 36 0 36 C0 24.12 0 12.24 0 0 Z " fill="#FFBF47" transform="translate(1224,366)"/>
<path d="M0 0 C2.31 0 4.62 0 7 0 C7.0093457 0.73637695 7.01869141 1.47275391 7.02832031 2.23144531 C7.08204155 5.57164218 7.16568622 8.91044119 7.25 12.25 C7.26417969 13.40886719 7.27835938 14.56773437 7.29296875 15.76171875 C7.32519531 16.87675781 7.35742188 17.99179687 7.390625 19.140625 C7.41157227 20.16704102 7.43251953 21.19345703 7.45410156 22.25097656 C8.13691604 25.68947883 9.21088604 26.9227884 12 29 C15.62649951 29.08916154 15.62649951 29.08916154 19 28 C21.25870108 24.61194839 21.29259413 23.22649259 21.4140625 19.23828125 C21.45273437 18.12001953 21.49140625 17.00175781 21.53125 15.84960938 C21.5621875 14.68236328 21.593125 13.51511719 21.625 12.3125 C21.66367187 11.13365234 21.70234375 9.95480469 21.7421875 8.74023438 C21.83654391 5.82698023 21.92213161 2.91373393 22 0 C24.31 0 26.62 0 29 0 C29 11.88 29 23.76 29 36 C27.02 36 25.04 36 23 36 C22.67 35.34 22.34 34.68 22 34 C20.7934375 34.7734375 20.7934375 34.7734375 19.5625 35.5625 C15.02910046 37.39176648 11.66821527 37.42113564 7 36 C3.6895883 33.39393121 1.54744273 30.89897399 0 27 C-0.22705078 24.06738281 -0.22705078 24.06738281 -0.1953125 20.703125 C-0.18886719 19.49785156 -0.18242188 18.29257812 -0.17578125 17.05078125 C-0.15064453 15.16939453 -0.15064453 15.16939453 -0.125 13.25 C-0.11597656 11.98027344 -0.10695313 10.71054687 -0.09765625 9.40234375 C-0.07409005 6.26803907 -0.04118832 3.13411459 0 0 Z " fill="#FFBF47" transform="translate(652,366)"/>
<path d="M0 0 C3.91075925 1.98968453 5.57689098 3.36533646 8 7 C8 7.99 8 8.98 8 10 C6.02 10.66 4.04 11.32 2 12 C1.319375 11.175 0.63875 10.35 -0.0625 9.5 C-2.84478007 6.63931296 -2.84478007 6.63931296 -6.8125 6.6875 C-7.864375 6.790625 -8.91625 6.89375 -10 7 C-9.95196558 9.43588957 -9.95196558 9.43588957 -9 12 C-6.41815475 13.52223554 -6.41815475 13.52223554 -3.25 14.5 C5.24276112 17.76566886 5.24276112 17.76566886 8 22 C8.9401679 26.23506824 8.50715602 29.10272396 6.375 32.875 C3.03350397 35.86475961 0.338207 36.96641713 -4.17578125 37.03125 C-9.41608569 36.67896063 -12.96392255 35.55559204 -17 32 C-18.875 28.75 -18.875 28.75 -20 26 C-17.35261084 24.5393715 -16.10551666 24 -13 24 C-11.33333333 25.66666667 -9.66666667 27.33333333 -8 29 C-5.42940507 30.16845224 -4.50235252 30.15788222 -1.8125 29.3125 C0.4367866 27.68370625 0.46688429 26.64403854 1 24 C0.34773438 23.81824219 -0.30453125 23.63648438 -0.9765625 23.44921875 C-13.50280724 19.84653774 -13.50280724 19.84653774 -16.875 15.6875 C-18.25127684 12.39972755 -18.57684834 10.53319608 -18 7 C-13.34110373 -0.4197237 -8.25645167 -0.86174531 0 0 Z " fill="#FFBF47" transform="translate(1397,366)"/>
<path d="M0 0 C3.35038498 1.77789985 6.09610939 3.83684672 7.84765625 7.23046875 C7.51765625 8.22046875 7.18765625 9.21046875 6.84765625 10.23046875 C4.28515625 11.41796875 4.28515625 11.41796875 1.84765625 12.23046875 C1.18765625 11.40546875 0.52765625 10.58046875 -0.15234375 9.73046875 C-3.52127783 6.92302368 -4.97797099 6.44927562 -9.21875 6.75390625 C-12.74394462 7.6227421 -14.13663608 9.29853032 -16.15234375 12.23046875 C-17.68168364 17.13039326 -17.56400876 21.62638101 -15.15234375 26.23046875 C-12.10383333 28.2337756 -10.2441089 28.23368858 -6.58984375 28.10546875 C-3.08498628 27.52494678 -3.08498628 27.52494678 -1.02734375 25.10546875 C-0.40859375 24.48671875 0.21015625 23.86796875 0.84765625 23.23046875 C3.59192341 23.42648783 5.39976117 24.00652121 7.84765625 25.23046875 C6.73012164 29.14183989 4.99229599 31.71289275 1.74609375 34.21484375 C-2.66287368 36.57355061 -7.55047847 36.70559198 -12.3984375 35.8203125 C-18.2659754 33.96798957 -21.14054449 30.60944144 -24.26171875 25.3671875 C-26.26136943 20.56977996 -25.85295865 14.86442603 -24.53515625 9.91015625 C-22.57809856 5.35523437 -19.83500065 2.46614279 -15.49609375 0.078125 C-10.42826675 -1.7547391 -5.08492515 -1.81802224 0 0 Z " fill="#FFBF47" transform="translate(638.15234375,366.76953125)"/>
<path d="M0 0 C2.866875 -0.061875 5.73375 -0.12375 8.6875 -0.1875 C10.02880981 -0.22846802 10.02880981 -0.22846802 11.3972168 -0.27026367 C16.09452947 -0.31925437 19.1967606 -0.07669464 23 3 C25.51768267 6.89096413 25.02732716 10.49129293 24.58203125 14.9140625 C23.89500043 17.37630719 22.83125821 18.27762742 21 20 C21.14478062 24.92254106 23.94142234 29.60517606 26 34 C23.69 34 21.38 34 19 34 C18.731875 33.21753906 18.46375 32.43507812 18.1875 31.62890625 C16.25894946 25.81706309 16.25894946 25.81706309 11.88671875 22.046875 C9.44372427 21.72856853 9.44372427 21.72856853 6 22 C6.01160156 22.78246094 6.02320313 23.56492187 6.03515625 24.37109375 C6.04417969 25.38300781 6.05320312 26.39492188 6.0625 27.4375 C6.07410156 28.44683594 6.08570313 29.45617187 6.09765625 30.49609375 C6 33 6 33 5 34 C3.35 34 1.7 34 0 34 C0 22.78 0 11.56 0 0 Z M6 6 C6 9.63 6 13.26 6 17 C7.588125 17.061875 9.17625 17.12375 10.8125 17.1875 C11.70582031 17.22230469 12.59914063 17.25710937 13.51953125 17.29296875 C16.02989563 17.1949132 16.02989563 17.1949132 17.8359375 15.71484375 C19.35762109 13.84442975 19.35762109 13.84442975 18.8125 10.375 C18.4103125 8.704375 18.4103125 8.704375 18 7 C15.47524538 5.73762269 13.68799534 5.90143596 10.875 5.9375 C9.26625 5.958125 7.6575 5.97875 6 6 Z " fill="#FFBF47" transform="translate(1567,24)"/>
<path d="M0 0 C2.31 0 4.62 0 7 0 C10.23244241 7.59094058 13.25792848 15.21803166 16 23 C18.80325955 16.31353665 21.57361763 9.62025305 24.203125 2.86328125 C25 1 25 1 26 0 C28.33297433 -0.04092937 30.66705225 -0.04241723 33 0 C32.39451018 4.68705593 31.06579277 8.8028665 29.27734375 13.1484375 C28.87993736 14.13452499 28.87993736 14.13452499 28.47450256 15.14053345 C27.63451863 17.22104354 26.78616677 19.29801877 25.9375 21.375 C25.36337408 22.79274283 24.78980069 24.21070954 24.21679688 25.62890625 C22.81757872 29.08854987 21.41083966 32.54507671 20 36 C17.69 36 15.38 36 13 36 C11.31255718 32.00854871 9.65299762 28.00580446 8 24 C7.66274902 23.18595703 7.32549805 22.37191406 6.97802734 21.53320312 C5.87347758 18.85856181 4.77957576 16.17975605 3.6875 13.5 C3.32591797 12.62762695 2.96433594 11.75525391 2.59179688 10.85644531 C2.25599609 10.02725586 1.92019531 9.19806641 1.57421875 8.34375 C1.27088623 7.60318359 0.96755371 6.86261719 0.6550293 6.09960938 C0 4 0 4 0 0 Z " fill="#FFBF47" transform="translate(1003,366)"/>
<path d="M0 0 C2.31 0 4.62 0 7 0 C7 2.31 7 4.62 7 7 C9.64 7 12.28 7 15 7 C15 9.31 15 11.62 15 14 C12.36 14 9.72 14 7 14 C7.14075205 16.93782469 7.2873838 19.87515171 7.4375 22.8125 C7.47681641 23.64587891 7.51613281 24.47925781 7.55664062 25.33789062 C7.61948242 26.54155273 7.61948242 26.54155273 7.68359375 27.76953125 C7.72025146 28.50792236 7.75690918 29.24631348 7.79467773 30.00708008 C7.94842141 32.207495 7.94842141 32.207495 9 35 C12.00847418 36.22520264 12.00847418 36.22520264 15 37 C15 38.98 15 40.96 15 43 C10.14557537 43.47592398 7.05472207 43.76906817 3 40.8125 C-0.81394078 35.44914577 -0.12397177 29.52854922 -0.0625 23.1875 C-0.05798828 22.30384766 -0.05347656 21.42019531 -0.04882812 20.50976562 C-0.03709866 18.33981441 -0.01916495 16.16989828 0 14 C-1.98 14 -3.96 14 -6 14 C-6 11.69 -6 9.38 -6 7 C-4.35 7 -2.7 7 -1 7 C-0.67 4.69 -0.34 2.38 0 0 Z " fill="#FFBF47" transform="translate(1491,359)"/>
<path d="M0 0 C2.31 0 4.62 0 7 0 C7 2.31 7 4.62 7 7 C9.31 7 11.62 7 14 7 C14 9.31 14 11.62 14 14 C11.69 14 9.38 14 7 14 C7.33 21.26 7.66 28.52 8 36 C11.465 36.495 11.465 36.495 15 37 C15 38.98 15 40.96 15 43 C7.00348432 43.6271777 7.00348432 43.6271777 3 41.125 C-0.04561068 37.88903866 -0.1215314 36.11871512 -0.09765625 31.7734375 C-0.09443359 30.7421875 -0.09121094 29.7109375 -0.08789062 28.6484375 C-0.07951172 27.56820313 -0.07113281 26.48796875 -0.0625 25.375 C-0.05798828 24.28703125 -0.05347656 23.1990625 -0.04882812 22.078125 C-0.03701776 19.38536211 -0.02054778 16.69270812 0 14 C-1.98 14 -3.96 14 -6 14 C-6 11.69 -6 9.38 -6 7 C-5.38125 6.95875 -4.7625 6.9175 -4.125 6.875 C-3.42375 6.58625 -2.7225 6.2975 -2 6 C-0.6954344 3.00384054 -0.6954344 3.00384054 0 0 Z " fill="#FFBF47" transform="translate(970,359)"/>
<path d="M0 0 C2.31 0 4.62 0 7 0 C7.33 0.66 7.66 1.32 8 2 C8.804375 1.505 8.804375 1.505 9.625 1 C12.5391061 -0.22699204 14.86867708 -0.14233286 18 0 C18 2.31 18 4.62 18 7 C15.98177083 7.390625 13.96354167 7.78125 11.9453125 8.171875 C9.87806603 8.83590296 9.87806603 8.83590296 8.90429688 10.71289062 C7.84516161 13.39161069 7.68182847 15.54514579 7.5859375 18.421875 C7.54726562 19.44667969 7.50859375 20.47148437 7.46875 21.52734375 C7.4378125 22.59082031 7.406875 23.65429688 7.375 24.75 C7.31699219 26.36841797 7.31699219 26.36841797 7.2578125 28.01953125 C7.16365369 30.67951775 7.07802613 33.3394994 7 36 C4.69 36 2.38 36 0 36 C0 24.12 0 12.24 0 0 Z " fill="#FFBF47" transform="translate(1318,366)"/>
<path d="M0 0 C1.98 0 3.96 0 6 0 C6.33 0.66 6.66 1.32 7 2 C7.515625 1.67 8.03125 1.34 8.5625 1 C11.78026512 -0.32010877 14.5570528 -0.13242105 18 0 C18 2.31 18 4.62 18 7 C17.37351562 7.07476562 16.74703125 7.14953125 16.1015625 7.2265625 C15.28429687 7.35804688 14.46703125 7.48953125 13.625 7.625 C12.81289063 7.74101562 12.00078125 7.85703125 11.1640625 7.9765625 C8.77538183 8.83915492 8.77538183 8.83915492 7.75 11.40625 C6.74292007 16.23184132 6.53493183 20.95709631 6.375 25.875 C6.33632813 26.84953125 6.29765625 27.8240625 6.2578125 28.828125 C6.16406967 31.2185672 6.0783617 33.60901244 6 36 C4.02 36 2.04 36 0 36 C0 24.12 0 12.24 0 0 Z " fill="#FFBF47" transform="translate(690,366)"/>
<path d="M0 0 C2.31 0 4.62 0 7 0 C7 11.88 7 23.76 7 36 C4.69 36 2.38 36 0 36 C0 24.12 0 12.24 0 0 Z " fill="#FFBF47" transform="translate(1261,366)"/>
<path d="M0 0 C2.31 0 4.62 0 7 0 C7 11.88 7 23.76 7 36 C4.69 36 2.38 36 0 36 C0 24.12 0 12.24 0 0 Z " fill="#FFBF47" transform="translate(991,366)"/>
<path d="M0 0 C2.31 0 4.62 0 7 0 C7 11.88 7 23.76 7 36 C4.69 36 2.38 36 0 36 C0 24.12 0 12.24 0 0 Z " fill="#FFBF47" transform="translate(951,366)"/>
<path d="M0 0 C2.31 0 4.62 0 7 0 C7 2.97 7 5.94 7 9 C4.69 9 2.38 9 0 9 C0 6.03 0 3.06 0 0 Z " fill="#FFBF47" transform="translate(1516,393)"/>
<path d="M0 0 C2.31 0 4.62 0 7 0 C7 2.97 7 5.94 7 9 C4.69 9 2.38 9 0 9 C0 6.03 0 3.06 0 0 Z " fill="#FFBF47" transform="translate(1081,393)"/>
<path d="M0 0 C2.31 0 4.62 0 7 0 C7 2.97 7 5.94 7 9 C4.69 9 2.38 9 0 9 C0 6.03 0 3.06 0 0 Z " fill="#FFBF47" transform="translate(753,393)"/>
<path d="M0 0 C2.31 0 4.62 0 7 0 C7 2.97 7 5.94 7 9 C4.69 9 2.38 9 0 9 C0 6.03 0 3.06 0 0 Z " fill="#FFBF47" transform="translate(1261,353)"/>
<path d="M0 0 C2.31 0 4.62 0 7 0 C7 2.97 7 5.94 7 9 C4.69 9 2.38 9 0 9 C0 6.03 0 3.06 0 0 Z " fill="#FFBF47" transform="translate(991,353)"/>
<path d="M0 0 C2.31 0 4.62 0 7 0 C7 2.97 7 5.94 7 9 C4.69 9 2.38 9 0 9 C0 6.03 0 3.06 0 0 Z " fill="#FFBF47" transform="translate(951,353)"/>
</svg>
