<svg width="19" height="19" viewBox="0 0 19 19" fill="none" xmlns="http://www.w3.org/2000/svg">
<path fill-rule="evenodd" clip-rule="evenodd" d="M18.6212 17.3241L14.6951 13.3989C15.8659 11.9384 16.5027 10.1218 16.5 8.25C16.5 3.696 12.804 0 8.25 0C3.696 0 0 3.696 0 8.25C0 12.804 3.696 16.5 8.25 16.5C10.1218 16.5027 11.9384 15.8659 13.3989 14.6951L17.3241 18.6212L18.6212 17.3241ZM14.6667 8.25C14.6693 9.91873 14.0196 11.5224 12.8562 12.7188L12.7188 12.8562C11.5224 14.0196 9.91873 14.6693 8.25 14.6667C4.70433 14.6667 1.83333 11.7947 1.83333 8.25C1.83333 4.70433 4.70433 1.83333 8.25 1.83333C11.7947 1.83333 14.6667 4.70433 14.6667 8.25Z" fill="white" fill-opacity="0.45"/>
</svg>
